# xmcd CD database file
#
# Track frame offsets:
#	150
#	15197
#	27700
#	39297
#	63765
#
# Disc length: 3929 seconds
#
# Revision: 0
# Processed by: cddbd v1.5.2PL0 Copyright (c) Steve Scherf et al.
# Submitted via: CDex 1.70beta2
#
DISCID=2f0f5705
DTITLE=DN. En cd med något för alla - DN. En cd med något för alla
DYEAR=1999
DGENRE=Jazz
TTITLE0=Monika Zetterlund - Sakta vi gå genom stan
TTITLE1=Lill Lindfors - En sån karl
TTITLE2=Anita Lindblom - Sånt är livet
TTITLE3=Sven-Ingvars - Fröken Fräken
TTITLE4=Data
EXTD=YEAR: 1999
EXTT0=
EXTT1=
EXTT2=
EXTT3=
EXTT4=
PLAYORDER=
